# xmcd
#
# Track frame offsets:
#  150
#  905
#  26980
#  43948
#  59985
#  81638
#  97193
#  113963
#  132085
#  155810
#  178690
#  195480
#  196230
#  214230
#  235315
#  254425
#  274643
#  293855
#
# Disc length: 4144 seconds
#
# Revision: 0
# Processed by: cddbd v1.5.1PL2 Copyright (c) Steve Scherf et al.
# Submitted via: Collectorz.com_Music_Collector 6.9
#
DISCID=18102e12
DTITLE=Various Artist - 010B
DYEAR=1993
DGENRE=Pop
TTITLE0=N/A
TTITLE1=Scorpions - Alien Nation
TTITLE2=The Cure - Just Like Heaven
TTITLE3=Mr. Big - Wild World
TTITLE4=Marc Cohn - The Rainy Season
TTITLE5=Julia Hatfield Three - My Sister
TTITLE6=Lenny Kravitz - Is There Any Love In Your Heart
TTITLE7=Allgood - Open It Up
TTITLE8=George Thorogood and The Destroyers - Howlin' For My Baby
TTITLE9=Vai - In My Dreams With You
TTITLE10=Bad Brains - Rise
TTITLE11=N/A
TTITLE12=Tony Toni Tone - Anniversary
TTITLE13=Candy Dulfer - 2 Funky
TTITLE14=1 Of The Girls - Handle With Care
TTITLE15=Five XI - Don't Cry For Me
TTITLE16=Richie Stephens - Everytime You're There
TTITLE17=Lisa Taylor - Don't Waste My Time
EXTD=
EXTT0=
EXTT1=
EXTT2=
EXTT3=
EXTT4=
EXTT5=
EXTT6=
EXTT7=
EXTT8=
EXTT9=
EXTT10=
EXTT11=
EXTT12=
EXTT13=
EXTT14=
EXTT15=
EXTT16=
EXTT17=
PLAYORDER=
